<svg xmlns="http://www.w3.org/2000/svg" width="24" height="24" viewBox="0 0 24 24" fill="none" stroke="currentColor" stroke-width="2" stroke-linecap="round" stroke-linejoin="round">
  <path d="M19 17h2c.6 0 1-.4 1-1v-3c0-.9-.7-1.7-1.5-1.9L18.4 9.6a2 2 0 0 0-1.3-.6H16"/>
  <path d="M5 17H3c-.6 0-1-.4-1-1v-3c0-.9.7-1.7 1.5-1.9L5.6 9.6a2 2 0 0 1 1.3-.6H8"/>
  <path d="M5 17a2 2 0 1 0 4 0v-6a1 1 0 0 1 1-1h4a1 1 0 0 1 1 1v6a2 2 0 1 0 4 0"/>
  <path d="M7 8V6.3a1 1 0 0 1 .9-1L15 4a2 2 0 0 1 2 2v2.3a1 1 0 0 1-.9 1L8 10a1 1 0 0 1-1-.7z"/>
  <path d="M7 17v1a1 1 0 0 0 1 1v2a2 2 0 1 0 4 0v-2h2v2a2 2 0 1 0 4 0v-2a1 1 0 0 0 1-1v-1"/>
</svg>