<svg xmlns="http://www.w3.org/2000/svg" width="24" height="24" viewBox="0 0 24 24" fill="none" stroke="currentColor" stroke-width="2" stroke-linecap="round" stroke-linejoin="round">
  <path d="M12 7.5a4.5 4.5 0 1 1 4.5 4.5M12 7.5A4.5 4.5 0 1 0 7.5 12M12 7.5V9a3 3 0 0 0 3 3h1.5M12 7.5V9a3 3 0 0 1-3 3H7.5"/>
  <path d="M12 16.5a4.5 4.5 0 1 1-4.5-4.5M12 16.5a4.5 4.5 0 1 0 4.5-4.5M12 16.5V15a3 3 0 0 0-3-3H7.5M12 16.5V15a3 3 0 0 1 3-3h1.5"/>
  <path d="M12 7.5v9"/>
  <circle cx="12" cy="12" r="1"/>
</svg>